<?xml version="1.0" encoding="utf-8"?>
<!-- Generator: Adobe Illustrator 19.1.0, SVG Export Plug-In . SVG Version: 6.00 Build 0)  -->
<svg version="1.1" id="图层_1" xmlns="http://www.w3.org/2000/svg" xmlns:xlink="http://www.w3.org/1999/xlink" x="0px" y="0px"
	 viewBox="0 0 120 60" style="enable-background:new 0 0 120 60;" xml:space="preserve">
<style type="text/css">
	.st0{fill:#F08223;}
</style>
<g>
	<g>
		<path class="st0" d="M19,9.1L8.8,46.2l-1-0.8l44.2-25l0,0.5L19,9.1z M17.1,8.5l35.1,11.9l0.6,0.2l-0.5,0.3L8.4,46.6L7,47.5
			l0.4-1.6L17.1,8.5z"/>
	</g>
	<g>
		<polygon class="st0" points="6.9,33.2 11.3,20.4 8.8,33.7 		"/>
	</g>
	<g>
		<polygon class="st0" points="13.6,33.1 18.1,20.4 15.6,33.6 		"/>
	</g>
	<g>
		<polygon class="st0" points="29.1,33.2 36.7,8.8 31.1,33.8 		"/>
	</g>
	<g>
		<polygon class="st0" points="36.5,46.5 30.1,33.3 38.3,45.5 		"/>
	</g>
	<g>
		<polygon class="st0" points="58.1,44.7 70.9,44.9 70.1,45.5 77.2,20.9 77.1,21 77.2,20.4 77.5,20.8 56.4,20.4 77.5,20.1 
			77.8,20.1 77.9,20.4 77.9,21 77.9,21 77.9,21.1 71.6,45.9 71.5,46.5 70.9,46.5 58.1,46.7 		"/>
	</g>
	<g>
		<polygon class="st0" points="51.9,46.7 45.5,46.6 46.3,46.1 46,46.5 42.8,51.6 44.5,45.8 48.1,33.2 48.7,33.9 18.1,33.3 
			48.7,32.7 49.5,32.7 49.3,33.5 46.1,46.2 44.6,45.6 44.8,45.2 45,44.8 45.5,44.8 51.9,44.7 		"/>
	</g>
	<g>
		<path class="st0" d="M64.1,39.6l0.1-0.2l1.8-6.1l0.8,1L56.4,34l0.5-0.4l-1.8,6.1l-0.3-0.4L64.1,39.6z M66.2,39.6l-1,0L54.8,40
			l-0.4,0l0.1-0.4l1.5-6.2L56,33l0.4,0l10.4-0.3l1,0l-0.2,1.1L66.2,39.6z"/>
	</g>
	<g>
		<polygon class="st0" points="68.6,27.9 58.2,26.9 68.6,25.9 		"/>
	</g>
	<g>
		<polygon class="st0" points="46.4,20.7 48.7,26.7 44.6,21.7 		"/>
	</g>
	<g>
		<polygon class="st0" points="86.1,27.9 79.7,26.9 86.1,25.9 		"/>
	</g>
	<g>
		<polygon class="st0" points="77.1,46 84.9,20.8 79,46.5 		"/>
	</g>
	<g>
		<polygon class="st0" points="83.8,27.4 76.3,39.9 82,26.5 		"/>
	</g>
	<g>
		<polygon class="st0" points="83.9,26.9 83.1,39.9 81.9,26.9 		"/>
	</g>
	<g>
		<polygon class="st0" points="91.5,47.2 84.9,47.2 83.6,47.2 84,46 91.1,20.6 92.4,16 92.3,20.8 92.3,20.9 91.7,20.3 112.7,20.5 
			113.1,20.5 113.1,20.9 113.1,21.4 113.1,21.5 113.1,21.5 109.8,33.4 109.8,33.5 109.7,33.5 109.5,33.7 109.4,33.7 109.3,33.7 
			88.3,33.5 109.3,33.3 109.2,33.3 109.4,33.1 109.3,33.3 112.4,21.3 112.4,21.4 112.4,20.9 112.7,21.3 91.7,21.5 91.1,21.5 
			91.1,20.9 91.1,20.8 92.3,20.9 85.7,46.5 84.9,45.3 91.5,45.2 		"/>
	</g>
	<g>
		<polygon class="st0" points="98.2,40.4 104.4,37.1 99.4,42 		"/>
	</g>
	<g>
		<polygon class="st0" points="111.1,28.1 90.1,27.1 111.1,26.1 		"/>
	</g>
	<g>
		<polygon class="st0" points="112.7,47.6 106.1,47.4 105.9,47.4 105.7,47.2 88.3,33.5 106.6,46 106.1,45.8 112.7,45.6 		"/>
	</g>
	<g>
		<path class="st0" d="M7.6,13.7l10.2-5.3l0.5,0.9L8.1,14.5L7.6,13.7z M8.1,14.5l9.7-6.2l0.5,0.9l-9.7,6.2L8.1,14.5z"/>
	</g>
</g>
</svg>
